# xmcd CD database file
#
# Track frame offsets:
#	150
#	23095
#	40565
#	58120
#	77811
#	101027
#	103719
#	123248
#	132343
#	150125
#
# Disc length: 2139 seconds
#
# Revision: 1
# Processed by: cddbd v1.5.2PL0 Copyright (c) Steve Scherf et al.
# Submitted via: CDex 1.51
#
DISCID=7208590a
DTITLE=Annie Lynch And The Beekeepers - Annie Lynch And The Beekeepers
DYEAR=2007
DGENRE=Folk
TTITLE0=Charlotte's Web
TTITLE1=Dirty Laundry
TTITLE2=Next to Me
TTITLE3=Sad Boy
TTITLE4=Silhouette
TTITLE5=
TTITLE6=Someone Else
TTITLE7=The Orange Grove
TTITLE8=The Bee Song
TTITLE9=Happy Ending
EXTD=YEAR: 2007
EXTT0=
EXTT1=
EXTT2=
EXTT3=
EXTT4=
EXTT5=
EXTT6=
EXTT7=
EXTT8=
EXTT9=
PLAYORDER=
